<?xml version="1.0" encoding="UTF-8" standalone="no"?>
<!-- Created with Inkscape (http://www.inkscape.org/) -->
<svg id="svg2" xmlns:rdf="http://www.w3.org/1999/02/22-rdf-syntax-ns#" xmlns="http://www.w3.org/2000/svg" height="24" width="24" version="1.1" xmlns:cc="http://creativecommons.org/ns#" xmlns:dc="http://purl.org/dc/elements/1.1/">
 <metadata id="metadata7">
  <rdf:RDF>
   <cc:Work rdf:about="">
    <dc:format>image/svg+xml</dc:format>
    <dc:type rdf:resource="http://purl.org/dc/dcmitype/StillImage"/>
    <dc:title/>
   </cc:Work>
  </rdf:RDF>
 </metadata>
 <g id="layer1" transform="translate(0 -1028.4)">
  <rect id="rect2828" style="opacity:.6;fill-opacity:0;stroke:#eae3d0;stroke-width:.80153" rx="1.3819" ry="1.3892" height="15.281" width="15.201" y="1032.7" x="4.3997"/>
  <text id="text3610" style="font-size:16.092px;font-family:Bitstream Vera Sans;fill:#eae3d0" xml:space="preserve" transform="scale(1.0419 .95976)" y="1089.7952" x="6.0167255"><tspan id="tspan3612" x="6.0167255" y="1089.7952">A</tspan></text>
  <path id="path4977" style="fill-rule:evenodd;stroke:#eae3d0;stroke-width:.050132;fill:#3a3935" d="m5.4177 1047.4c-0.2329-0.1-0.4463-0.3-0.5218-0.5-0.0366-0.1-0.0532-2.2-0.0532-6.6 0-6.4 0.0011-6.5 0.1018-6.7 0.0579-0.1 0.1908-0.2 0.3082-0.3l0.2065-0.2h6.4708c6.255 0 6.478 0 6.685 0.1 0.269 0.1 0.459 0.4 0.527 0.7 0.036 0.2 0.049 2.3 0.039 6.6l-0.013 6.3-0.137 0.2c-0.076 0.2-0.222 0.3-0.325 0.4l-0.188 0.1h-6.45c-6.197 0-6.4581 0-6.6503-0.1zm3.2992-2.9 0.5492-1.4h2.7509 2.751l0.546 1.4 0.545 1.5h0.889 0.889l-0.235-0.6c-0.129-0.3-1.179-2.9-2.334-5.7l-2.1-5h-0.957-0.983c-0.014 0.1-1.0541 2.6-2.3115 5.6s-2.2972 5.5-2.3108 5.6c-0.0228 0.1 0.0418 0.1 0.8687 0.1h0.8933l0.5492-1.5z"/>
  <path id="path4979" style="fill-rule:evenodd;stroke:#eae3d0;stroke-width:.050132;fill:#3a3935" d="m10.884 1039c0.596-1.5 1.097-2.7 1.113-2.7 0.021 0 1.854 4.5 2.182 5.4h-2.177-2.2012l1.0832-2.7z"/>
 </g>
</svg>
