<?xml version="1.0" encoding="UTF-8" standalone="no"?>
<!-- Created with Inkscape (http://www.inkscape.org/) -->
<svg id="svg2" xmlns:rdf="http://www.w3.org/1999/02/22-rdf-syntax-ns#" xmlns="http://www.w3.org/2000/svg" height="24" width="24" version="1.1" xmlns:cc="http://creativecommons.org/ns#" xmlns:dc="http://purl.org/dc/elements/1.1/">
 <metadata id="metadata7">
  <rdf:RDF>
   <cc:Work rdf:about="">
    <dc:format>image/svg+xml</dc:format>
    <dc:type rdf:resource="http://purl.org/dc/dcmitype/StillImage"/>
    <dc:title/>
   </cc:Work>
  </rdf:RDF>
 </metadata>
 <g id="layer1" transform="translate(0 -1028.4)">
  <rect id="rect2828" style="opacity:0.6;fill-opacity:0;stroke:#eae3d0;stroke-width:.80209" rx="1.3818" ry="1.3892" height="15.281" width="15.2" y="1032.7" x="4.4"/>
  <path id="rect4985" style="fill-rule:evenodd;stroke:#eae3d0;stroke-miterlimit:3;stroke-width:.77994;fill:#eae3d0" d="m12.141 1035.1 4.27 4h-8.8218l4.5518-4z"/>
  <rect id="rect4988" style="fill-rule:evenodd;stroke:#eae3d0;stroke-miterlimit:3;stroke-width:.79652;fill:#eae3d0" height="5.6353" width="4.0056" y="1039.9" x="9.9975"/>
  <path id="path5173" style="stroke-width:0;fill:#3a3935;fill-rule:evenodd;stroke-miterlimit:3" d="m5.4235 1047.4c-0.2323-0.1-0.445-0.3-0.5203-0.5-0.0365-0.1-0.053-2.2-0.053-6.6 0-6.4 0.001-6.5 0.1014-6.7 0.0577-0.1 0.1903-0.2 0.3073-0.3l0.2059-0.2h6.4522c6.237 0 6.459 0 6.665 0.1 0.269 0.1 0.459 0.4 0.527 0.7 0.035 0.2 0.048 2.3 0.038 6.6l-0.013 6.3-0.137 0.2c-0.075 0.1-0.221 0.3-0.324 0.4l-0.187 0.1h-6.432c-6.1786 0-6.4389 0-6.6305-0.1zm8.9985-4.7v-3.2h1.475 1.459c-0.01 0-0.892-0.9-1.961-1.9-1.07-1-2.241-2.1-2.602-2.5l-0.657-0.6-2.7685 2.5c-1.5225 1.3-2.7817 2.5-2.7982 2.5h1.4936 1.5235v3.2 3.3h2.4176 2.418v-3.3z"/>
 </g>
</svg>
