<?xml version="1.0" encoding="UTF-8" standalone="no"?>
<!-- Created with Inkscape (http://www.inkscape.org/) -->
<svg id="svg2" xmlns:rdf="http://www.w3.org/1999/02/22-rdf-syntax-ns#" xmlns="http://www.w3.org/2000/svg" height="24" width="24" version="1.1" xmlns:cc="http://creativecommons.org/ns#" xmlns:dc="http://purl.org/dc/elements/1.1/">
 <metadata id="metadata7">
  <rdf:RDF>
   <cc:Work rdf:about="">
    <dc:format>image/svg+xml</dc:format>
    <dc:type rdf:resource="http://purl.org/dc/dcmitype/StillImage"/>
    <dc:title/>
   </cc:Work>
  </rdf:RDF>
 </metadata>
 <g id="layer1" transform="translate(0 -1028.4)">
  <g id="g2817" transform="matrix(0.8 0 0 .80425 2.4003 203.6)">
   <rect id="rect2828" style="opacity:0.6;fill-opacity:0;stroke:#3a3935;stroke-width:.99996" rx="1.7273" ry="1.7273" height="19" width="19" y="1030.9" x="2.4996"/>
   <path id="rect4985" style="opacity:.6;fill-rule:evenodd;stroke:#3a3935;stroke-miterlimit:3;stroke-width:.97235;fill:#3a3935" d="m12.176 1033.8 5.338 5.1h-11.028l5.69-5.1z"/>
   <rect id="rect4988" style="opacity:0.6;fill-rule:evenodd;stroke:#3a3935;stroke-miterlimit:3;stroke-width:.99302;fill:#3a3935" height="7.007" width="5.007" y="1039.9" x="9.4965"/>
   <path id="path5173" style="stroke-width:0;fill:#eae3d0;fill-rule:evenodd;stroke-miterlimit:3" d="m3.779 1049.2c-0.2904-0.1-0.5563-0.4-0.6504-0.7-0.0456-0.1-0.0663-2.6-0.0663-8.2 0-7.9 0.0013-8 0.1269-8.2 0.0721-0.2 0.2378-0.4 0.3841-0.5l0.2573-0.2h8.0654c7.796 0 8.074 0 8.332 0.1 0.335 0.2 0.573 0.5 0.657 0.9 0.045 0.2 0.061 2.8 0.049 8.2l-0.017 7.8-0.171 0.3c-0.094 0.2-0.276 0.4-0.405 0.4l-0.234 0.2h-8.039c-7.7241 0-8.0495 0-8.289-0.1zm11.249-5.8v-4h1.843c1.104 0 1.836 0 1.823-0.1-0.011 0-1.114-1-2.451-2.3s-2.8-2.6-3.252-3.1l-0.822-0.7-3.46 3c-1.9032 1.7-3.4771 3.1-3.4977 3.1-0.0239 0.1 0.6501 0.1 1.867 0.1h1.9044v4 4h3.0223 3.023v-4z"/>
  </g>
 </g>
</svg>
