<?xml version="1.0" encoding="UTF-8" standalone="no"?>
<!-- Created with Inkscape (http://www.inkscape.org/) -->
<svg id="svg2" xmlns:rdf="http://www.w3.org/1999/02/22-rdf-syntax-ns#" xmlns="http://www.w3.org/2000/svg" height="24" width="24" version="1.1" xmlns:cc="http://creativecommons.org/ns#" xmlns:dc="http://purl.org/dc/elements/1.1/">
 <metadata id="metadata7">
  <rdf:RDF>
   <cc:Work rdf:about="">
    <dc:format>image/svg+xml</dc:format>
    <dc:type rdf:resource="http://purl.org/dc/dcmitype/StillImage"/>
    <dc:title/>
   </cc:Work>
  </rdf:RDF>
 </metadata>
 <g id="layer1" transform="translate(0 -1028.4)">
  <g id="g3019" transform="matrix(0.8 0 0 .80424 2.4 203.61)">
   <rect id="rect2828" style="opacity:.6;fill-opacity:0;stroke:#3a3935;stroke-width:.99927" rx="1.7273" ry="1.7273" height="19.001" width="19.001" y="1030.9" x="2.4996"/>
   <text id="text3610" style="opacity:.6;font-size:20.062px;font-family:Bitstream Vera Sans;fill:#3a3935" xml:space="preserve" transform="scale(1.0447 .95722)" y="1094.1675" x="4.6293769"><tspan id="tspan3612" y="1094.1675" x="4.6293769">A</tspan></text>
   <path id="path3594" d="m3.7422 20.835c-0.1514-0.077-0.3613-0.249-0.4664-0.381l-0.1911-0.24v-8.202-8.2016l0.1506-0.2198c0.0828-0.1209 0.2495-0.2876 0.3704-0.3704l0.2198-0.1507h8.1655 8.165l0.26 0.172c0.143 0.0946 0.324 0.2914 0.402 0.4375l0.142 0.2655v8.0625 8.063l-0.171 0.29c-0.127 0.216-0.255 0.333-0.497 0.453l-0.326 0.163h-7.974-7.9746l-0.2752-0.141zm4.1549-3.579 0.6875-1.781 3.4364 0.016 3.435 0.016 0.684 1.766 0.683 1.765h1.113c1.057 0 1.111-0.006 1.069-0.115-0.025-0.063-1.339-3.227-2.92-7.031l-2.875-6.9158-1.207 0.0154-1.207 0.0154-2.9028 6.965c-1.5962 3.831-2.9023 6.988-2.9023 7.016s0.4992 0.05 1.1094 0.05h1.1094l0.6874-1.782z" style="fill-rule:evenodd;stroke:#eae3d0;stroke-width:.0625;fill:#eae3d0" transform="translate(0 1028.4)"/>
   <path id="path3596" d="m10.607 10.415c0.744-1.8556 1.368-3.3744 1.387-3.3752 0.025-0.0011 2.279 5.5062 2.73 6.6702 0.024 0.062-0.545 0.078-2.72 0.078h-2.75l1.353-3.373z" style="fill-rule:evenodd;stroke:#eae3d0;stroke-width:.0625;fill:#eae3d0" transform="translate(0 1028.4)"/>
  </g>
 </g>
</svg>
