<?xml version="1.0" encoding="UTF-8" standalone="no"?>
<!-- Created with Inkscape (http://www.inkscape.org/) -->
<svg id="svg2" xmlns:rdf="http://www.w3.org/1999/02/22-rdf-syntax-ns#" xmlns="http://www.w3.org/2000/svg" height="24" width="24" version="1.1" xmlns:cc="http://creativecommons.org/ns#" xmlns:dc="http://purl.org/dc/elements/1.1/">
 <metadata id="metadata7">
  <rdf:RDF>
   <cc:Work rdf:about="">
    <dc:format>image/svg+xml</dc:format>
    <dc:type rdf:resource="http://purl.org/dc/dcmitype/StillImage"/>
    <dc:title/>
   </cc:Work>
  </rdf:RDF>
 </metadata>
 <g id="layer1" transform="translate(0 -1028.4)">
  <g id="g2817" transform="matrix(0.8 0 0 .80424 2.4 203.61)">
   <rect id="rect2828" style="opacity:.6;fill-opacity:0;stroke:#3a3935;stroke-width:.99927" rx="1.7273" ry="1.7273" height="19.001" width="19.001" y="1030.9" x="2.4996"/>
   <text id="text2822" style="opacity:.6;font-size:18.813px;font-family:Bitstream Vera Sans;fill:#3a3935" xml:space="preserve" transform="scale(.97963 1.0208)" y="1026.0226" x="6.0995293"><tspan id="tspan2824" y="1026.0226" x="6.0995293">1</tspan></text>
   <path id="path4269" d="m3.7562 20.856c-0.3025-0.14-0.4929-0.337-0.622-0.646-0.0856-0.205-0.0967-1.15-0.0967-8.205 0-7.0543 0.0111-7.999 0.0967-8.2038 0.1291-0.3089 0.3195-0.5067 0.622-0.6464 0.239-0.1102 0.6043-0.1153 8.2498-0.1153 7.628 0 8.012 0.0053 8.253 0.1147 0.306 0.1391 0.564 0.4327 0.655 0.7447 0.047 0.1612 0.061 2.665 0.048 8.2421l-0.018 8.01-0.189 0.271c-0.11 0.158-0.303 0.329-0.466 0.412l-0.278 0.14-8.002-0.001c-7.6468-0.001-8.0139-0.007-8.2528-0.117zm12.282-2.632v-0.812h-1.5-1.5v-6.219-6.2188h-0.913c-0.855 0-1.009 0.0201-2.4222 0.3146-0.83 0.173-1.5583 0.3296-1.6184 0.348-0.0974 0.0297-0.1094 0.1292-0.1094 0.9041 0 0.6767 0.0183 0.8708 0.082 0.8708 0.045 0 0.7507-0.1406 1.568-0.3125 0.817-0.1719 1.512-0.3125 1.543-0.3125 0.034 0 0.057 2.1602 0.057 5.3123v5.313h-1.5-1.5v0.812 0.813h3.906 3.907v-0.813z" style="fill-rule:evenodd;stroke:#eae3d0;stroke-width:.0625;fill:#eae3d0" transform="translate(0 1028.4)"/>
  </g>
 </g>
</svg>
