<?xml version="1.0" encoding="UTF-8" standalone="no"?>
<!-- Created with Inkscape (http://www.inkscape.org/) -->
<svg id="svg2" xmlns:rdf="http://www.w3.org/1999/02/22-rdf-syntax-ns#" xmlns="http://www.w3.org/2000/svg" height="24" width="24" version="1.1" xmlns:cc="http://creativecommons.org/ns#" xmlns:dc="http://purl.org/dc/elements/1.1/">
 <metadata id="metadata7">
  <rdf:RDF>
   <cc:Work rdf:about="">
    <dc:format>image/svg+xml</dc:format>
    <dc:type rdf:resource="http://purl.org/dc/dcmitype/StillImage"/>
    <dc:title/>
   </cc:Work>
  </rdf:RDF>
 </metadata>
 <g id="layer1" transform="translate(0 -1028.4)">
  <rect id="rect2828" style="opacity:.6;fill-opacity:0;stroke:#3a3935;stroke-width:.80153" rx="1.3819" ry="1.3892" height="15.281" width="15.201" y="1032.7" x="4.3997"/>
  <text id="text2822" style="font-size:15.09px;font-family:Bitstream Vera Sans;fill:#eae3d0" xml:space="preserve" transform="scale(.97704 1.0235)" y="1021.9227" x="7.348947"><tspan id="tspan2824" x="7.348947" y="1021.9227">1</tspan></text>
  <path id="path4269" style="fill:#dc0000;fill-rule:evenodd" d="m5.405 1047.4c-0.242-0.1-0.3944-0.2-0.4976-0.5-0.0685-0.2-0.0774-0.9-0.0774-6.6s0.0089-6.4 0.0774-6.6c0.1032-0.2 0.2556-0.4 0.4976-0.5 0.1911-0.1 0.4834-0.1 6.6-0.1 6.102 0 6.409 0 6.602 0.1 0.245 0.1 0.452 0.3 0.524 0.6 0.037 0.1 0.049 2.1 0.039 6.6l-0.015 6.5-0.151 0.2c-0.088 0.1-0.243 0.2-0.373 0.3l-0.222 0.1h-6.402c-6.1173 0-6.4109 0-6.602-0.1zm9.825-2.1v-0.6h-1.2-1.2v-5-5h-0.73c-0.684 0-0.807 0-1.938 0.2-0.6638 0.2-1.2464 0.3-1.2945 0.3-0.0779 0-0.0875 0.1-0.0875 0.7s0.0146 0.7 0.0656 0.7c0.036 0 0.6005-0.1 1.2544-0.2 0.654-0.2 1.209-0.3 1.234-0.3 0.027 0 0.046 1.8 0.046 4.3v4.3h-1.2-1.2v0.6 0.7h3.125 3.125v-0.7z"/>
 </g>
</svg>
